<svg xmlns="http://www.w3.org/2000/svg" xmlns:xlink="http://www.w3.org/1999/xlink" width="500" zoomAndPan="magnify" viewBox="0 0 375 374.999991" height="500" preserveAspectRatio="xMidYMid meet" version="1.0"><defs><g/></defs><g fill="#000000" fill-opacity="1"><g transform="translate(11.196835, 201.242807)"><g><path d="M 7.703125 -26.046875 L 7.703125 -14.78125 L 22.53125 -14.78125 L 22.53125 -12.15625 L 7.703125 -12.15625 L 7.703125 0 L 4.671875 0 L 4.671875 -28.671875 L 24.328125 -28.671875 L 24.328125 -26.046875 Z M 7.703125 -26.046875 "/></g></g></g><g fill="#000000" fill-opacity="1"><g transform="translate(50.17157, 201.242807)"><g/></g></g><g fill="#000000" fill-opacity="1"><g transform="translate(73.960852, 201.242807)"><g><path d="M 24.9375 -2.625 L 24.9375 0 L 4.671875 0 L 4.671875 -28.671875 L 24.328125 -28.671875 L 24.328125 -26.046875 L 7.703125 -26.046875 L 7.703125 -15.84375 L 22.53125 -15.84375 L 22.53125 -13.265625 L 7.703125 -13.265625 L 7.703125 -2.625 Z M 24.9375 -2.625 "/></g></g></g><g fill="#000000" fill-opacity="1"><g transform="translate(114.409092, 201.242807)"><g/></g></g><g fill="#000000" fill-opacity="1"><g transform="translate(138.198374, 201.242807)"><g><path d="M 34.4375 -28.671875 L 34.4375 0 L 31.53125 0 L 31.53125 -22.9375 L 20.265625 -3.640625 L 18.84375 -3.640625 L 7.578125 -22.8125 L 7.578125 0 L 4.671875 0 L 4.671875 -28.671875 L 7.171875 -28.671875 L 19.609375 -7.40625 L 31.9375 -28.671875 Z M 34.4375 -28.671875 "/></g></g></g><g fill="#000000" fill-opacity="1"><g transform="translate(190.352905, 201.242807)"><g/></g></g><g fill="#000000" fill-opacity="1"><g transform="translate(214.142187, 201.242807)"><g><path d="M 4.671875 -28.671875 L 7.703125 -28.671875 L 7.703125 0 L 4.671875 0 Z M 4.671875 -28.671875 "/></g></g></g><g fill="#000000" fill-opacity="1"><g transform="translate(239.568733, 201.242807)"><g/></g></g><g fill="#000000" fill-opacity="1"><g transform="translate(263.358015, 201.242807)"><g><path d="M 28.625 -28.671875 L 28.625 0 L 26.125 0 L 7.703125 -23.265625 L 7.703125 0 L 4.671875 0 L 4.671875 -28.671875 L 7.171875 -28.671875 L 25.640625 -5.40625 L 25.640625 -28.671875 Z M 28.625 -28.671875 "/></g></g></g><g fill="#000000" fill-opacity="1"><g transform="translate(309.700323, 201.242807)"><g/></g></g><g fill="#000000" fill-opacity="1"><g transform="translate(333.489589, 201.242807)"><g><path d="M 22.640625 -7.65625 L 6.671875 -7.65625 L 3.234375 0 L 0.078125 0 L 13.1875 -28.671875 L 16.171875 -28.671875 L 29.28125 0 L 26.09375 0 Z M 21.546875 -10.109375 L 14.65625 -25.515625 L 7.78125 -10.109375 Z M 21.546875 -10.109375 "/></g></g></g><g fill="#000000" fill-opacity="1"><g transform="translate(8.042604, 217.880256)"><g><path d="M 0.828125 -5.078125 L 2.90625 -5.078125 C 3.4375 -5.078125 3.90625 -4.96875 4.3125 -4.75 C 4.726562 -4.539062 5.050781 -4.242188 5.28125 -3.859375 C 5.507812 -3.472656 5.625 -3.035156 5.625 -2.546875 C 5.625 -2.046875 5.507812 -1.601562 5.28125 -1.21875 C 5.050781 -0.832031 4.726562 -0.53125 4.3125 -0.3125 C 3.90625 -0.101562 3.4375 0 2.90625 0 L 0.828125 0 Z M 2.875 -0.46875 C 3.3125 -0.46875 3.695312 -0.554688 4.03125 -0.734375 C 4.375 -0.910156 4.632812 -1.15625 4.8125 -1.46875 C 5 -1.78125 5.09375 -2.140625 5.09375 -2.546875 C 5.09375 -2.953125 5 -3.3125 4.8125 -3.625 C 4.632812 -3.9375 4.375 -4.179688 4.03125 -4.359375 C 3.695312 -4.535156 3.3125 -4.625 2.875 -4.625 L 1.359375 -4.625 L 1.359375 -0.46875 Z M 2.875 -0.46875 "/></g></g></g><g fill="#000000" fill-opacity="1"><g transform="translate(16.361236, 217.880256)"><g/></g></g><g fill="#000000" fill-opacity="1"><g transform="translate(20.582304, 217.880256)"><g><path d="M 4.421875 -0.46875 L 4.421875 0 L 0.828125 0 L 0.828125 -5.078125 L 4.3125 -5.078125 L 4.3125 -4.625 L 1.359375 -4.625 L 1.359375 -2.8125 L 4 -2.8125 L 4 -2.359375 L 1.359375 -2.359375 L 1.359375 -0.46875 Z M 4.421875 -0.46875 "/></g></g></g><g fill="#000000" fill-opacity="1"><g transform="translate(27.760307, 217.880256)"><g/></g></g><g fill="#000000" fill-opacity="1"><g transform="translate(31.981373, 217.880256)"><g><path d="M 2.234375 0.046875 C 1.847656 0.046875 1.484375 -0.0078125 1.140625 -0.125 C 0.796875 -0.25 0.53125 -0.414062 0.34375 -0.625 L 0.546875 -1.03125 C 0.734375 -0.84375 0.976562 -0.691406 1.28125 -0.578125 C 1.59375 -0.472656 1.910156 -0.421875 2.234375 -0.421875 C 2.679688 -0.421875 3.019531 -0.503906 3.25 -0.671875 C 3.476562 -0.835938 3.59375 -1.050781 3.59375 -1.3125 C 3.59375 -1.519531 3.53125 -1.679688 3.40625 -1.796875 C 3.28125 -1.921875 3.128906 -2.015625 2.953125 -2.078125 C 2.773438 -2.140625 2.523438 -2.210938 2.203125 -2.296875 C 1.828125 -2.390625 1.523438 -2.476562 1.296875 -2.5625 C 1.066406 -2.65625 0.867188 -2.796875 0.703125 -2.984375 C 0.546875 -3.171875 0.46875 -3.421875 0.46875 -3.734375 C 0.46875 -3.992188 0.535156 -4.226562 0.671875 -4.4375 C 0.804688 -4.644531 1.015625 -4.8125 1.296875 -4.9375 C 1.578125 -5.0625 1.925781 -5.125 2.34375 -5.125 C 2.632812 -5.125 2.914062 -5.082031 3.1875 -5 C 3.46875 -4.925781 3.710938 -4.816406 3.921875 -4.671875 L 3.734375 -4.25 C 3.523438 -4.394531 3.296875 -4.5 3.046875 -4.5625 C 2.804688 -4.632812 2.570312 -4.671875 2.34375 -4.671875 C 1.894531 -4.671875 1.554688 -4.582031 1.328125 -4.40625 C 1.109375 -4.238281 1 -4.019531 1 -3.75 C 1 -3.539062 1.054688 -3.375 1.171875 -3.25 C 1.296875 -3.132812 1.453125 -3.039062 1.640625 -2.96875 C 1.828125 -2.90625 2.078125 -2.835938 2.390625 -2.765625 C 2.765625 -2.671875 3.066406 -2.578125 3.296875 -2.484375 C 3.523438 -2.398438 3.71875 -2.265625 3.875 -2.078125 C 4.039062 -1.898438 4.125 -1.65625 4.125 -1.34375 C 4.125 -1.082031 4.054688 -0.847656 3.921875 -0.640625 C 3.785156 -0.429688 3.570312 -0.265625 3.28125 -0.140625 C 3 -0.015625 2.648438 0.046875 2.234375 0.046875 Z M 2.234375 0.046875 "/></g></g></g><g fill="#000000" fill-opacity="1"><g transform="translate(38.767051, 217.880256)"><g/></g></g><g fill="#000000" fill-opacity="1"><g transform="translate(42.988118, 217.880256)"><g><path d="M 0.828125 -5.078125 L 1.359375 -5.078125 L 1.359375 0 L 0.828125 0 Z M 0.828125 -5.078125 "/></g></g></g><g fill="#000000" fill-opacity="1"><g transform="translate(47.499788, 217.880256)"><g/></g></g><g fill="#000000" fill-opacity="1"><g transform="translate(51.720857, 217.880256)"><g><path d="M 4.296875 0 L 3.140625 -1.640625 C 3.003906 -1.617188 2.867188 -1.609375 2.734375 -1.609375 L 1.359375 -1.609375 L 1.359375 0 L 0.828125 0 L 0.828125 -5.078125 L 2.734375 -5.078125 C 3.378906 -5.078125 3.882812 -4.921875 4.25 -4.609375 C 4.625 -4.304688 4.8125 -3.882812 4.8125 -3.34375 C 4.8125 -2.945312 4.707031 -2.609375 4.5 -2.328125 C 4.300781 -2.054688 4.015625 -1.863281 3.640625 -1.75 L 4.890625 0 Z M 2.71875 -2.078125 C 3.21875 -2.078125 3.597656 -2.1875 3.859375 -2.40625 C 4.128906 -2.625 4.265625 -2.9375 4.265625 -3.34375 C 4.265625 -3.75 4.128906 -4.0625 3.859375 -4.28125 C 3.597656 -4.507812 3.21875 -4.625 2.71875 -4.625 L 1.359375 -4.625 L 1.359375 -2.078125 Z M 2.71875 -2.078125 "/></g></g></g><g fill="#000000" fill-opacity="1"><g transform="translate(59.291176, 217.880256)"><g/></g></g><g fill="#000000" fill-opacity="1"><g transform="translate(63.512245, 217.880256)"><g><path d="M 4.421875 -0.46875 L 4.421875 0 L 0.828125 0 L 0.828125 -5.078125 L 4.3125 -5.078125 L 4.3125 -4.625 L 1.359375 -4.625 L 1.359375 -2.8125 L 4 -2.8125 L 4 -2.359375 L 1.359375 -2.359375 L 1.359375 -0.46875 Z M 4.421875 -0.46875 "/></g></g></g><g fill="#000000" fill-opacity="1"><g transform="translate(70.690249, 217.880256)"><g/></g></g><g fill="#000000" fill-opacity="1"><g transform="translate(74.911318, 217.880256)"><g><path d="M 4.421875 -0.46875 L 4.421875 0 L 0.828125 0 L 0.828125 -5.078125 L 4.3125 -5.078125 L 4.3125 -4.625 L 1.359375 -4.625 L 1.359375 -2.8125 L 4 -2.8125 L 4 -2.359375 L 1.359375 -2.359375 L 1.359375 -0.46875 Z M 1.375 -6.40625 L 2.0625 -6.40625 L 3.0625 -5.5 L 2.546875 -5.5 Z M 1.375 -6.40625 "/></g></g></g><g fill="#000000" fill-opacity="1"><g transform="translate(82.08467, 217.880256)"><g/></g></g><g fill="#000000" fill-opacity="1"><g transform="translate(86.305738, 217.880256)"><g/></g></g><g fill="#000000" fill-opacity="1"><g transform="translate(90.522836, 217.880256)"><g><path d="M 0.828125 -5.078125 L 1.359375 -5.078125 L 1.359375 -0.46875 L 4.21875 -0.46875 L 4.21875 0 L 0.828125 0 Z M 0.828125 -5.078125 "/></g></g></g><g fill="#000000" fill-opacity="1"><g transform="translate(97.119623, 217.880256)"><g/></g></g><g fill="#000000" fill-opacity="1"><g transform="translate(101.34069, 217.880256)"><g><path d="M 4.015625 -1.359375 L 1.1875 -1.359375 L 0.578125 0 L 0.015625 0 L 2.34375 -5.078125 L 2.875 -5.078125 L 5.1875 0 L 4.625 0 Z M 3.828125 -1.796875 L 2.59375 -4.53125 L 1.375 -1.796875 Z M 3.828125 -1.796875 "/></g></g></g><g fill="#000000" fill-opacity="1"><g transform="translate(108.867422, 217.880256)"><g/></g></g><g fill="#000000" fill-opacity="1"><g transform="translate(113.088489, 217.880256)"><g><path d="M 4.296875 0 L 3.140625 -1.640625 C 3.003906 -1.617188 2.867188 -1.609375 2.734375 -1.609375 L 1.359375 -1.609375 L 1.359375 0 L 0.828125 0 L 0.828125 -5.078125 L 2.734375 -5.078125 C 3.378906 -5.078125 3.882812 -4.921875 4.25 -4.609375 C 4.625 -4.304688 4.8125 -3.882812 4.8125 -3.34375 C 4.8125 -2.945312 4.707031 -2.609375 4.5 -2.328125 C 4.300781 -2.054688 4.015625 -1.863281 3.640625 -1.75 L 4.890625 0 Z M 2.71875 -2.078125 C 3.21875 -2.078125 3.597656 -2.1875 3.859375 -2.40625 C 4.128906 -2.625 4.265625 -2.9375 4.265625 -3.34375 C 4.265625 -3.75 4.128906 -4.0625 3.859375 -4.28125 C 3.597656 -4.507812 3.21875 -4.625 2.71875 -4.625 L 1.359375 -4.625 L 1.359375 -2.078125 Z M 2.71875 -2.078125 "/></g></g></g><g fill="#000000" fill-opacity="1"><g transform="translate(120.658806, 217.880256)"><g/></g></g><g fill="#000000" fill-opacity="1"><g transform="translate(124.879872, 217.880256)"><g><path d="M 2.875 0.046875 C 2.21875 0.046875 1.703125 -0.140625 1.328125 -0.515625 C 0.960938 -0.898438 0.78125 -1.453125 0.78125 -2.171875 L 0.78125 -5.078125 L 1.328125 -5.078125 L 1.328125 -2.1875 C 1.328125 -1.601562 1.457031 -1.164062 1.71875 -0.875 C 1.988281 -0.582031 2.375 -0.4375 2.875 -0.4375 C 3.382812 -0.4375 3.769531 -0.582031 4.03125 -0.875 C 4.300781 -1.164062 4.4375 -1.601562 4.4375 -2.1875 L 4.4375 -5.078125 L 4.96875 -5.078125 L 4.96875 -2.171875 C 4.96875 -1.453125 4.78125 -0.898438 4.40625 -0.515625 C 4.039062 -0.140625 3.53125 0.046875 2.875 0.046875 Z M 2.875 0.046875 "/></g></g></g><g fill="#000000" fill-opacity="1"><g transform="translate(132.951495, 217.880256)"><g/></g></g><g fill="#000000" fill-opacity="1"><g transform="translate(137.172564, 217.880256)"><g><path d="M 1.359375 -4.625 L 1.359375 -2.625 L 4 -2.625 L 4 -2.15625 L 1.359375 -2.15625 L 1.359375 0 L 0.828125 0 L 0.828125 -5.078125 L 4.3125 -5.078125 L 4.3125 -4.625 Z M 1.359375 -4.625 "/></g></g></g><g fill="#000000" fill-opacity="1"><g transform="translate(144.089019, 217.880256)"><g/></g></g><g fill="#000000" fill-opacity="1"><g transform="translate(148.310088, 217.880256)"><g><path d="M 1.359375 -4.625 L 1.359375 -2.625 L 4 -2.625 L 4 -2.15625 L 1.359375 -2.15625 L 1.359375 0 L 0.828125 0 L 0.828125 -5.078125 L 4.3125 -5.078125 L 4.3125 -4.625 Z M 1.359375 -4.625 "/></g></g></g><g fill="#000000" fill-opacity="1"><g transform="translate(155.226542, 217.880256)"><g/></g></g><g fill="#000000" fill-opacity="1"><g transform="translate(159.447611, 217.880256)"><g><path d="M 4.015625 -1.359375 L 1.1875 -1.359375 L 0.578125 0 L 0.015625 0 L 2.34375 -5.078125 L 2.875 -5.078125 L 5.1875 0 L 4.625 0 Z M 3.828125 -1.796875 L 2.59375 -4.53125 L 1.375 -1.796875 Z M 3.828125 -1.796875 "/></g></g></g><g fill="#000000" fill-opacity="1"><g transform="translate(166.967698, 217.880256)"><g/></g></g><g fill="#000000" fill-opacity="1"><g transform="translate(171.188765, 217.880256)"><g/></g></g><g fill="#000000" fill-opacity="1"><g transform="translate(175.405864, 217.880256)"><g><path d="M 4.46875 0.078125 L 3.765625 -0.640625 C 3.328125 -0.179688 2.757812 0.046875 2.0625 0.046875 C 1.726562 0.046875 1.429688 -0.00390625 1.171875 -0.109375 C 0.921875 -0.222656 0.722656 -0.378906 0.578125 -0.578125 C 0.429688 -0.773438 0.359375 -1 0.359375 -1.25 C 0.359375 -1.550781 0.453125 -1.820312 0.640625 -2.0625 C 0.835938 -2.3125 1.171875 -2.566406 1.640625 -2.828125 C 1.390625 -3.085938 1.21875 -3.300781 1.125 -3.46875 C 1.039062 -3.644531 1 -3.835938 1 -4.046875 C 1 -4.367188 1.113281 -4.628906 1.34375 -4.828125 C 1.570312 -5.023438 1.882812 -5.125 2.28125 -5.125 C 2.644531 -5.125 2.929688 -5.03125 3.140625 -4.84375 C 3.359375 -4.664062 3.46875 -4.421875 3.46875 -4.109375 C 3.46875 -3.859375 3.378906 -3.628906 3.203125 -3.421875 C 3.035156 -3.222656 2.742188 -3.003906 2.328125 -2.765625 L 3.734375 -1.328125 C 3.878906 -1.609375 3.988281 -1.9375 4.0625 -2.3125 L 4.484375 -2.171875 C 4.398438 -1.722656 4.253906 -1.335938 4.046875 -1.015625 L 4.765625 -0.265625 Z M 2.28125 -4.734375 C 2.03125 -4.734375 1.832031 -4.671875 1.6875 -4.546875 C 1.539062 -4.421875 1.46875 -4.253906 1.46875 -4.046875 C 1.46875 -3.898438 1.503906 -3.757812 1.578125 -3.625 C 1.660156 -3.488281 1.816406 -3.300781 2.046875 -3.0625 C 2.410156 -3.28125 2.660156 -3.460938 2.796875 -3.609375 C 2.941406 -3.765625 3.015625 -3.929688 3.015625 -4.109375 C 3.015625 -4.296875 2.945312 -4.445312 2.8125 -4.5625 C 2.6875 -4.675781 2.507812 -4.734375 2.28125 -4.734375 Z M 2.09375 -0.390625 C 2.65625 -0.390625 3.109375 -0.578125 3.453125 -0.953125 L 1.921875 -2.53125 C 1.523438 -2.300781 1.25 -2.09375 1.09375 -1.90625 C 0.9375 -1.726562 0.859375 -1.523438 0.859375 -1.296875 C 0.859375 -1.023438 0.972656 -0.804688 1.203125 -0.640625 C 1.429688 -0.472656 1.726562 -0.390625 2.09375 -0.390625 Z M 2.09375 -0.390625 "/></g></g></g><g fill="#000000" fill-opacity="1"><g transform="translate(182.576413, 217.880256)"><g/></g></g><g fill="#000000" fill-opacity="1"><g transform="translate(186.79748, 217.880256)"><g/></g></g><g fill="#000000" fill-opacity="1"><g transform="translate(191.014578, 217.880256)"><g><path d="M 1.359375 -4.625 L 1.359375 -2.625 L 4 -2.625 L 4 -2.15625 L 1.359375 -2.15625 L 1.359375 0 L 0.828125 0 L 0.828125 -5.078125 L 4.3125 -5.078125 L 4.3125 -4.625 Z M 1.359375 -4.625 "/></g></g></g><g fill="#000000" fill-opacity="1"><g transform="translate(197.931031, 217.880256)"><g/></g></g><g fill="#000000" fill-opacity="1"><g transform="translate(202.152098, 217.880256)"><g><path d="M 4.296875 0 L 3.140625 -1.640625 C 3.003906 -1.617188 2.867188 -1.609375 2.734375 -1.609375 L 1.359375 -1.609375 L 1.359375 0 L 0.828125 0 L 0.828125 -5.078125 L 2.734375 -5.078125 C 3.378906 -5.078125 3.882812 -4.921875 4.25 -4.609375 C 4.625 -4.304688 4.8125 -3.882812 4.8125 -3.34375 C 4.8125 -2.945312 4.707031 -2.609375 4.5 -2.328125 C 4.300781 -2.054688 4.015625 -1.863281 3.640625 -1.75 L 4.890625 0 Z M 2.71875 -2.078125 C 3.21875 -2.078125 3.597656 -2.1875 3.859375 -2.40625 C 4.128906 -2.625 4.265625 -2.9375 4.265625 -3.34375 C 4.265625 -3.75 4.128906 -4.0625 3.859375 -4.28125 C 3.597656 -4.507812 3.21875 -4.625 2.71875 -4.625 L 1.359375 -4.625 L 1.359375 -2.078125 Z M 2.71875 -2.078125 "/></g></g></g><g fill="#000000" fill-opacity="1"><g transform="translate(209.722416, 217.880256)"><g/></g></g><g fill="#000000" fill-opacity="1"><g transform="translate(213.943483, 217.880256)"><g><path d="M 4.015625 -1.359375 L 1.1875 -1.359375 L 0.578125 0 L 0.015625 0 L 2.34375 -5.078125 L 2.875 -5.078125 L 5.1875 0 L 4.625 0 Z M 3.828125 -1.796875 L 2.59375 -4.53125 L 1.375 -1.796875 Z M 3.828125 -1.796875 "/></g></g></g><g fill="#000000" fill-opacity="1"><g transform="translate(221.470214, 217.880256)"><g/></g></g><g fill="#000000" fill-opacity="1"><g transform="translate(225.691281, 217.880256)"><g><path d="M 5.078125 -5.078125 L 5.078125 0 L 4.640625 0 L 1.359375 -4.125 L 1.359375 0 L 0.828125 0 L 0.828125 -5.078125 L 1.265625 -5.078125 L 4.546875 -0.953125 L 4.546875 -5.078125 Z M 5.078125 -5.078125 "/></g></g></g><g fill="#000000" fill-opacity="1"><g transform="translate(233.915471, 217.880256)"><g/></g></g><g fill="#000000" fill-opacity="1"><g transform="translate(238.13654, 217.880256)"><g><path d="M 3.03125 0.046875 C 2.53125 0.046875 2.078125 -0.0625 1.671875 -0.28125 C 1.265625 -0.507812 0.945312 -0.820312 0.71875 -1.21875 C 0.488281 -1.613281 0.375 -2.054688 0.375 -2.546875 C 0.375 -3.035156 0.488281 -3.476562 0.71875 -3.875 C 0.945312 -4.269531 1.265625 -4.578125 1.671875 -4.796875 C 2.078125 -5.015625 2.535156 -5.125 3.046875 -5.125 C 3.421875 -5.125 3.765625 -5.0625 4.078125 -4.9375 C 4.398438 -4.8125 4.675781 -4.628906 4.90625 -4.390625 L 4.5625 -4.046875 C 4.164062 -4.453125 3.664062 -4.65625 3.0625 -4.65625 C 2.65625 -4.65625 2.285156 -4.5625 1.953125 -4.375 C 1.628906 -4.1875 1.375 -3.929688 1.1875 -3.609375 C 1 -3.296875 0.90625 -2.941406 0.90625 -2.546875 C 0.90625 -2.148438 1 -1.789062 1.1875 -1.46875 C 1.375 -1.144531 1.628906 -0.890625 1.953125 -0.703125 C 2.285156 -0.523438 2.65625 -0.4375 3.0625 -0.4375 C 3.664062 -0.4375 4.164062 -0.640625 4.5625 -1.046875 L 4.90625 -0.703125 C 4.675781 -0.460938 4.398438 -0.273438 4.078125 -0.140625 C 3.765625 -0.015625 3.414062 0.046875 3.03125 0.046875 Z M 3.03125 0.046875 "/></g></g></g><g fill="#000000" fill-opacity="1"><g transform="translate(245.677805, 217.880256)"><g/></g></g><g fill="#000000" fill-opacity="1"><g transform="translate(249.898874, 217.880256)"><g><path d="M 4.421875 -0.46875 L 4.421875 0 L 0.828125 0 L 0.828125 -5.078125 L 4.3125 -5.078125 L 4.3125 -4.625 L 1.359375 -4.625 L 1.359375 -2.8125 L 4 -2.8125 L 4 -2.359375 L 1.359375 -2.359375 L 1.359375 -0.46875 Z M 4.421875 -0.46875 "/></g></g></g><g fill="#000000" fill-opacity="1"><g transform="translate(257.076878, 217.880256)"><g/></g></g><g fill="#000000" fill-opacity="1"><g transform="translate(261.297947, 217.880256)"><g><path d="M 2.234375 0.046875 C 1.847656 0.046875 1.484375 -0.0078125 1.140625 -0.125 C 0.796875 -0.25 0.53125 -0.414062 0.34375 -0.625 L 0.546875 -1.03125 C 0.734375 -0.84375 0.976562 -0.691406 1.28125 -0.578125 C 1.59375 -0.472656 1.910156 -0.421875 2.234375 -0.421875 C 2.679688 -0.421875 3.019531 -0.503906 3.25 -0.671875 C 3.476562 -0.835938 3.59375 -1.050781 3.59375 -1.3125 C 3.59375 -1.519531 3.53125 -1.679688 3.40625 -1.796875 C 3.28125 -1.921875 3.128906 -2.015625 2.953125 -2.078125 C 2.773438 -2.140625 2.523438 -2.210938 2.203125 -2.296875 C 1.828125 -2.390625 1.523438 -2.476562 1.296875 -2.5625 C 1.066406 -2.65625 0.867188 -2.796875 0.703125 -2.984375 C 0.546875 -3.171875 0.46875 -3.421875 0.46875 -3.734375 C 0.46875 -3.992188 0.535156 -4.226562 0.671875 -4.4375 C 0.804688 -4.644531 1.015625 -4.8125 1.296875 -4.9375 C 1.578125 -5.0625 1.925781 -5.125 2.34375 -5.125 C 2.632812 -5.125 2.914062 -5.082031 3.1875 -5 C 3.46875 -4.925781 3.710938 -4.816406 3.921875 -4.671875 L 3.734375 -4.25 C 3.523438 -4.394531 3.296875 -4.5 3.046875 -4.5625 C 2.804688 -4.632812 2.570312 -4.671875 2.34375 -4.671875 C 1.894531 -4.671875 1.554688 -4.582031 1.328125 -4.40625 C 1.109375 -4.238281 1 -4.019531 1 -3.75 C 1 -3.539062 1.054688 -3.375 1.171875 -3.25 C 1.296875 -3.132812 1.453125 -3.039062 1.640625 -2.96875 C 1.828125 -2.90625 2.078125 -2.835938 2.390625 -2.765625 C 2.765625 -2.671875 3.066406 -2.578125 3.296875 -2.484375 C 3.523438 -2.398438 3.71875 -2.265625 3.875 -2.078125 C 4.039062 -1.898438 4.125 -1.65625 4.125 -1.34375 C 4.125 -1.082031 4.054688 -0.847656 3.921875 -0.640625 C 3.785156 -0.429688 3.570312 -0.265625 3.28125 -0.140625 C 3 -0.015625 2.648438 0.046875 2.234375 0.046875 Z M 2.234375 0.046875 "/></g></g></g><g fill="#000000" fill-opacity="1"><g transform="translate(268.083627, 217.880256)"><g/></g></g><g fill="#000000" fill-opacity="1"><g transform="translate(272.304692, 217.880256)"><g><path d="M 3.03125 0.046875 C 2.53125 0.046875 2.078125 -0.0625 1.671875 -0.28125 C 1.265625 -0.507812 0.945312 -0.820312 0.71875 -1.21875 C 0.488281 -1.613281 0.375 -2.054688 0.375 -2.546875 C 0.375 -3.035156 0.488281 -3.476562 0.71875 -3.875 C 0.945312 -4.269531 1.265625 -4.578125 1.671875 -4.796875 C 2.078125 -5.015625 2.535156 -5.125 3.046875 -5.125 C 3.421875 -5.125 3.765625 -5.0625 4.078125 -4.9375 C 4.398438 -4.8125 4.675781 -4.628906 4.90625 -4.390625 L 4.5625 -4.046875 C 4.164062 -4.453125 3.664062 -4.65625 3.0625 -4.65625 C 2.65625 -4.65625 2.285156 -4.5625 1.953125 -4.375 C 1.628906 -4.1875 1.375 -3.929688 1.1875 -3.609375 C 1 -3.296875 0.90625 -2.941406 0.90625 -2.546875 C 0.90625 -2.148438 1 -1.789062 1.1875 -1.46875 C 1.375 -1.144531 1.628906 -0.890625 1.953125 -0.703125 C 2.285156 -0.523438 2.65625 -0.4375 3.0625 -0.4375 C 3.664062 -0.4375 4.164062 -0.640625 4.5625 -1.046875 L 4.90625 -0.703125 C 4.675781 -0.460938 4.398438 -0.273438 4.078125 -0.140625 C 3.765625 -0.015625 3.414062 0.046875 3.03125 0.046875 Z M 3.03125 0.046875 "/></g></g></g><g fill="#000000" fill-opacity="1"><g transform="translate(279.845957, 217.880256)"><g/></g></g><g fill="#000000" fill-opacity="1"><g transform="translate(284.067026, 217.880256)"><g><path d="M 4.015625 -1.359375 L 1.1875 -1.359375 L 0.578125 0 L 0.015625 0 L 2.34375 -5.078125 L 2.875 -5.078125 L 5.1875 0 L 4.625 0 Z M 3.828125 -1.796875 L 2.59375 -4.53125 L 1.375 -1.796875 Z M 3.828125 -1.796875 "/></g></g></g><g fill="#000000" fill-opacity="1"><g transform="translate(291.593759, 217.880256)"><g/></g></g><g fill="#000000" fill-opacity="1"><g transform="translate(295.814828, 217.880256)"><g><path d="M 4.03125 -2.625 C 4.363281 -2.550781 4.617188 -2.40625 4.796875 -2.1875 C 4.984375 -1.976562 5.078125 -1.703125 5.078125 -1.359375 C 5.078125 -0.921875 4.914062 -0.582031 4.59375 -0.34375 C 4.269531 -0.113281 3.796875 0 3.171875 0 L 0.828125 0 L 0.828125 -5.078125 L 3.015625 -5.078125 C 3.585938 -5.078125 4.03125 -4.960938 4.34375 -4.734375 C 4.65625 -4.515625 4.8125 -4.195312 4.8125 -3.78125 C 4.8125 -3.5 4.738281 -3.257812 4.59375 -3.0625 C 4.457031 -2.863281 4.269531 -2.71875 4.03125 -2.625 Z M 1.359375 -4.640625 L 1.359375 -2.796875 L 2.984375 -2.796875 C 3.398438 -2.796875 3.71875 -2.875 3.9375 -3.03125 C 4.15625 -3.1875 4.265625 -3.414062 4.265625 -3.71875 C 4.265625 -4.019531 4.15625 -4.25 3.9375 -4.40625 C 3.71875 -4.5625 3.398438 -4.640625 2.984375 -4.640625 Z M 3.15625 -0.4375 C 3.613281 -0.4375 3.957031 -0.515625 4.1875 -0.671875 C 4.425781 -0.828125 4.546875 -1.070312 4.546875 -1.40625 C 4.546875 -2.039062 4.082031 -2.359375 3.15625 -2.359375 L 1.359375 -2.359375 L 1.359375 -0.4375 Z M 3.15625 -0.4375 "/></g></g></g><g fill="#000000" fill-opacity="1"><g transform="translate(303.610372, 217.880256)"><g/></g></g><g fill="#000000" fill-opacity="1"><g transform="translate(307.831441, 217.880256)"><g><path d="M 4.015625 -1.359375 L 1.1875 -1.359375 L 0.578125 0 L 0.015625 0 L 2.34375 -5.078125 L 2.875 -5.078125 L 5.1875 0 L 4.625 0 Z M 3.828125 -1.796875 L 2.59375 -4.53125 L 1.375 -1.796875 Z M 3.828125 -1.796875 "/></g></g></g><g fill="#000000" fill-opacity="1"><g transform="translate(315.358175, 217.880256)"><g/></g></g><g fill="#000000" fill-opacity="1"><g transform="translate(319.579244, 217.880256)"><g><path d="M 4.296875 0 L 3.140625 -1.640625 C 3.003906 -1.617188 2.867188 -1.609375 2.734375 -1.609375 L 1.359375 -1.609375 L 1.359375 0 L 0.828125 0 L 0.828125 -5.078125 L 2.734375 -5.078125 C 3.378906 -5.078125 3.882812 -4.921875 4.25 -4.609375 C 4.625 -4.304688 4.8125 -3.882812 4.8125 -3.34375 C 4.8125 -2.945312 4.707031 -2.609375 4.5 -2.328125 C 4.300781 -2.054688 4.015625 -1.863281 3.640625 -1.75 L 4.890625 0 Z M 2.71875 -2.078125 C 3.21875 -2.078125 3.597656 -2.1875 3.859375 -2.40625 C 4.128906 -2.625 4.265625 -2.9375 4.265625 -3.34375 C 4.265625 -3.75 4.128906 -4.0625 3.859375 -4.28125 C 3.597656 -4.507812 3.21875 -4.625 2.71875 -4.625 L 1.359375 -4.625 L 1.359375 -2.078125 Z M 2.71875 -2.078125 "/></g></g></g><g fill="#000000" fill-opacity="1"><g transform="translate(327.149563, 217.880256)"><g/></g></g><g fill="#000000" fill-opacity="1"><g transform="translate(331.370632, 217.880256)"><g><path d="M 0.828125 -5.078125 L 1.359375 -5.078125 L 1.359375 0 L 0.828125 0 Z M 0.828125 -5.078125 "/></g></g></g><g fill="#000000" fill-opacity="1"><g transform="translate(335.882304, 217.880256)"><g/></g></g><g fill="#000000" fill-opacity="1"><g transform="translate(340.103373, 217.880256)"><g><path d="M 0.828125 -5.078125 L 1.359375 -5.078125 L 1.359375 -0.46875 L 4.21875 -0.46875 L 4.21875 0 L 0.828125 0 Z M 0.828125 -5.078125 "/></g></g></g><g fill="#000000" fill-opacity="1"><g transform="translate(346.700161, 217.880256)"><g/></g></g><g fill="#000000" fill-opacity="1"><g transform="translate(350.921221, 217.880256)"><g><path d="M 0.828125 -5.078125 L 1.359375 -5.078125 L 1.359375 -0.46875 L 4.21875 -0.46875 L 4.21875 0 L 0.828125 0 Z M 0.828125 -5.078125 "/></g></g></g><g fill="#000000" fill-opacity="1"><g transform="translate(357.518009, 217.880256)"><g/></g></g><g fill="#000000" fill-opacity="1"><g transform="translate(361.739069, 217.880256)"><g><path d="M 4.015625 -1.359375 L 1.1875 -1.359375 L 0.578125 0 L 0.015625 0 L 2.34375 -5.078125 L 2.875 -5.078125 L 5.1875 0 L 4.625 0 Z M 3.828125 -1.796875 L 2.59375 -4.53125 L 1.375 -1.796875 Z M 1.390625 -6.40625 L 2.078125 -6.40625 L 3.078125 -5.5 L 2.5625 -5.5 Z M 1.390625 -6.40625 "/></g></g></g><path stroke-linecap="butt" transform="matrix(0.75068, 0, 0, 0.75, 6.611272, 208.197056)" fill="none" stroke-linejoin="miter" d="M -0.00252745 0.497675 L 482.570424 0.497675 " stroke="#000000" stroke-width="1" stroke-opacity="1" stroke-miterlimit="4"/><g fill="#000000" fill-opacity="1"><g transform="translate(123.564407, 159.303803)"><g><path d="M 8.015625 -8.03125 L 8.015625 0 L 7.171875 0 L 7.171875 -3.703125 L 2.15625 -3.703125 L 2.15625 0 L 1.3125 0 L 1.3125 -8.03125 L 2.15625 -8.03125 L 2.15625 -4.453125 L 7.171875 -4.453125 L 7.171875 -8.03125 Z M 8.015625 -8.03125 "/></g></g></g><g fill="#000000" fill-opacity="1"><g transform="translate(136.548622, 159.303803)"><g><path d="M 6.34375 -2.140625 L 1.875 -2.140625 L 0.90625 0 L 0.015625 0 L 3.6875 -8.03125 L 4.53125 -8.03125 L 8.203125 0 L 7.3125 0 Z M 6.03125 -2.828125 L 4.109375 -7.140625 L 2.171875 -2.828125 Z M 6.03125 -2.828125 "/></g></g></g><g fill="#000000" fill-opacity="1"><g transform="translate(148.431905, 159.303803)"><g><path d="M 1.3125 -8.03125 L 2.15625 -8.03125 L 2.15625 0 L 1.3125 0 Z M 1.3125 -8.03125 "/></g></g></g><g fill="#000000" fill-opacity="1"><g transform="translate(155.555927, 159.303803)"><g><path d="M 6.796875 0 L 4.953125 -2.578125 C 4.742188 -2.554688 4.53125 -2.546875 4.3125 -2.546875 L 2.15625 -2.546875 L 2.15625 0 L 1.3125 0 L 1.3125 -8.03125 L 4.3125 -8.03125 C 5.332031 -8.03125 6.132812 -7.785156 6.71875 -7.296875 C 7.300781 -6.804688 7.59375 -6.132812 7.59375 -5.28125 C 7.59375 -4.644531 7.429688 -4.113281 7.109375 -3.6875 C 6.796875 -3.257812 6.34375 -2.945312 5.75 -2.75 L 7.71875 0 Z M 4.296875 -3.265625 C 5.085938 -3.265625 5.691406 -3.441406 6.109375 -3.796875 C 6.535156 -4.148438 6.75 -4.644531 6.75 -5.28125 C 6.75 -5.925781 6.535156 -6.421875 6.109375 -6.765625 C 5.691406 -7.117188 5.085938 -7.296875 4.296875 -7.296875 L 2.15625 -7.296875 L 2.15625 -3.265625 Z M 4.296875 -3.265625 "/></g></g></g><g fill="#000000" fill-opacity="1"><g transform="translate(167.502348, 159.303803)"><g/></g></g><g fill="#000000" fill-opacity="1"><g transform="translate(174.167641, 159.303803)"><g/></g></g><g fill="#000000" fill-opacity="1"><g transform="translate(180.8309, 159.303803)"><g><path d="M 1.3125 -8.03125 L 2.15625 -8.03125 L 2.15625 -0.734375 L 6.65625 -0.734375 L 6.65625 0 L 1.3125 0 Z M 1.3125 -8.03125 "/></g></g></g><g fill="#000000" fill-opacity="1"><g transform="translate(191.246267, 159.303803)"><g><path d="M 4.8125 0.0625 C 4.019531 0.0625 3.300781 -0.113281 2.65625 -0.46875 C 2.007812 -0.820312 1.503906 -1.304688 1.140625 -1.921875 C 0.773438 -2.546875 0.59375 -3.242188 0.59375 -4.015625 C 0.59375 -4.785156 0.773438 -5.476562 1.140625 -6.09375 C 1.503906 -6.71875 2.007812 -7.207031 2.65625 -7.5625 C 3.300781 -7.914062 4.019531 -8.09375 4.8125 -8.09375 C 5.613281 -8.09375 6.332031 -7.914062 6.96875 -7.5625 C 7.601562 -7.21875 8.101562 -6.734375 8.46875 -6.109375 C 8.84375 -5.484375 9.03125 -4.785156 9.03125 -4.015625 C 9.03125 -3.242188 8.84375 -2.546875 8.46875 -1.921875 C 8.101562 -1.296875 7.601562 -0.804688 6.96875 -0.453125 C 6.332031 -0.109375 5.613281 0.0625 4.8125 0.0625 Z M 4.8125 -0.6875 C 5.445312 -0.6875 6.019531 -0.828125 6.53125 -1.109375 C 7.050781 -1.398438 7.453125 -1.800781 7.734375 -2.3125 C 8.023438 -2.820312 8.171875 -3.390625 8.171875 -4.015625 C 8.171875 -4.640625 8.023438 -5.207031 7.734375 -5.71875 C 7.453125 -6.226562 7.050781 -6.625 6.53125 -6.90625 C 6.019531 -7.195312 5.445312 -7.34375 4.8125 -7.34375 C 4.175781 -7.34375 3.597656 -7.195312 3.078125 -6.90625 C 2.566406 -6.625 2.164062 -6.226562 1.875 -5.71875 C 1.582031 -5.207031 1.4375 -4.640625 1.4375 -4.015625 C 1.4375 -3.390625 1.582031 -2.820312 1.875 -2.3125 C 2.164062 -1.800781 2.566406 -1.398438 3.078125 -1.109375 C 3.597656 -0.828125 4.175781 -0.6875 4.8125 -0.6875 Z M 4.8125 -0.6875 "/></g></g></g><g fill="#000000" fill-opacity="1"><g transform="translate(204.528652, 159.303803)"><g><path d="M 4.546875 0.0625 C 3.503906 0.0625 2.691406 -0.234375 2.109375 -0.828125 C 1.523438 -1.421875 1.234375 -2.285156 1.234375 -3.421875 L 1.234375 -8.03125 L 2.09375 -8.03125 L 2.09375 -3.46875 C 2.09375 -2.53125 2.300781 -1.832031 2.71875 -1.375 C 3.132812 -0.914062 3.742188 -0.6875 4.546875 -0.6875 C 5.347656 -0.6875 5.957031 -0.914062 6.375 -1.375 C 6.789062 -1.832031 7 -2.53125 7 -3.46875 L 7 -8.03125 L 7.828125 -8.03125 L 7.828125 -3.421875 C 7.828125 -2.285156 7.535156 -1.421875 6.953125 -0.828125 C 6.378906 -0.234375 5.578125 0.0625 4.546875 0.0625 Z M 4.546875 0.0625 "/></g></g></g><g fill="#000000" fill-opacity="1"><g transform="translate(217.272041, 159.303803)"><g><path d="M 8.015625 -8.03125 L 8.015625 0 L 7.3125 0 L 2.15625 -6.515625 L 2.15625 0 L 1.3125 0 L 1.3125 -8.03125 L 2 -8.03125 L 7.171875 -1.515625 L 7.171875 -8.03125 Z M 8.015625 -8.03125 "/></g></g></g><g fill="#000000" fill-opacity="1"><g transform="translate(230.256257, 159.303803)"><g><path d="M 6.96875 -4.015625 L 7.78125 -4.015625 L 7.78125 -0.953125 C 7.40625 -0.617188 6.957031 -0.363281 6.4375 -0.1875 C 5.925781 -0.0195312 5.390625 0.0625 4.828125 0.0625 C 4.023438 0.0625 3.300781 -0.109375 2.65625 -0.453125 C 2.019531 -0.804688 1.515625 -1.296875 1.140625 -1.921875 C 0.773438 -2.546875 0.59375 -3.242188 0.59375 -4.015625 C 0.59375 -4.785156 0.773438 -5.484375 1.140625 -6.109375 C 1.515625 -6.734375 2.019531 -7.21875 2.65625 -7.5625 C 3.300781 -7.914062 4.03125 -8.09375 4.84375 -8.09375 C 5.445312 -8.09375 6.003906 -7.992188 6.515625 -7.796875 C 7.035156 -7.609375 7.472656 -7.320312 7.828125 -6.9375 L 7.296875 -6.40625 C 6.660156 -7.03125 5.851562 -7.34375 4.875 -7.34375 C 4.226562 -7.34375 3.640625 -7.195312 3.109375 -6.90625 C 2.585938 -6.625 2.175781 -6.226562 1.875 -5.71875 C 1.582031 -5.207031 1.4375 -4.640625 1.4375 -4.015625 C 1.4375 -3.390625 1.582031 -2.820312 1.875 -2.3125 C 2.175781 -1.8125 2.585938 -1.414062 3.109375 -1.125 C 3.628906 -0.832031 4.210938 -0.6875 4.859375 -0.6875 C 5.679688 -0.6875 6.382812 -0.894531 6.96875 -1.3125 Z M 6.96875 -4.015625 "/></g></g></g><g fill="#000000" fill-opacity="1"><g transform="translate(242.781752, 159.303803)"><g><path d="M 6.984375 -0.734375 L 6.984375 0 L 1.3125 0 L 1.3125 -8.03125 L 6.8125 -8.03125 L 6.8125 -7.296875 L 2.15625 -7.296875 L 2.15625 -4.4375 L 6.3125 -4.4375 L 6.3125 -3.71875 L 2.15625 -3.71875 L 2.15625 -0.734375 Z M 6.984375 -0.734375 "/></g></g></g></svg>